<svg width="18" height="18" viewBox="0 0 18 18" fill="none" xmlns="http://www.w3.org/2000/svg">
<path d="M9.4275 10.8837C9.37469 10.822 9.30917 10.7726 9.23544 10.7386C9.16171 10.7047 9.08151 10.6872 9.00035 10.6872C8.91919 10.6872 8.83899 10.7047 8.76526 10.7386C8.69153 10.7726 8.62601 10.822 8.5732 10.8837L5.1982 14.8212C5.12813 14.9028 5.08294 15.0029 5.06801 15.1094C5.05307 15.216 5.06901 15.3246 5.11394 15.4224C5.15887 15.5201 5.23089 15.603 5.32148 15.661C5.41206 15.7191 5.5174 15.75 5.625 15.75H12.375C12.4826 15.75 12.5879 15.7191 12.6785 15.661C12.7691 15.603 12.8411 15.5201 12.8861 15.4224C12.931 15.3246 12.9469 15.216 12.932 15.1094C12.9171 15.0029 12.8719 14.9028 12.8018 14.8212L9.4275 10.8837ZM6.84773 14.625L9 12.1141L11.1523 14.625H6.84773ZM16.3125 4.5V12.375C16.3125 12.8226 16.1347 13.2518 15.8182 13.5682C15.5018 13.8847 15.0726 14.0625 14.625 14.0625H14.0625C13.9133 14.0625 13.7702 14.0032 13.6648 13.8977C13.5593 13.7923 13.5 13.6492 13.5 13.5C13.5 13.3508 13.5593 13.2077 13.6648 13.1023C13.7702 12.9968 13.9133 12.9375 14.0625 12.9375H14.625C14.7742 12.9375 14.9173 12.8782 15.0227 12.7727C15.1282 12.6673 15.1875 12.5242 15.1875 12.375V4.5C15.1875 4.35082 15.1282 4.20774 15.0227 4.10225C14.9173 3.99676 14.7742 3.9375 14.625 3.9375H3.375C3.22582 3.9375 3.08274 3.99676 2.97725 4.10225C2.87176 4.20774 2.8125 4.35082 2.8125 4.5V12.375C2.8125 12.5242 2.87176 12.6673 2.97725 12.7727C3.08274 12.8782 3.22582 12.9375 3.375 12.9375H3.9375C4.08668 12.9375 4.22976 12.9968 4.33525 13.1023C4.44074 13.2077 4.5 13.3508 4.5 13.5C4.5 13.6492 4.44074 13.7923 4.33525 13.8977C4.22976 14.0032 4.08668 14.0625 3.9375 14.0625H3.375C2.92745 14.0625 2.49822 13.8847 2.18176 13.5682C1.86529 13.2518 1.6875 12.8226 1.6875 12.375V4.5C1.6875 4.05245 1.86529 3.62322 2.18176 3.30676C2.49822 2.99029 2.92745 2.8125 3.375 2.8125H14.625C15.0726 2.8125 15.5018 2.99029 15.8182 3.30676C16.1347 3.62322 16.3125 4.05245 16.3125 4.5Z" fill="#D7D5C8"/>
</svg>
