<svg width="18" height="18" viewBox="0 0 18 18" fill="none" xmlns="http://www.w3.org/2000/svg">
<path d="M5.625 7.59375C5.625 7.81753 5.53611 8.03214 5.37787 8.19037C5.21964 8.34861 5.00503 8.4375 4.78125 8.4375H1.96875C1.74497 8.4375 1.53036 8.34861 1.37213 8.19037C1.21389 8.03214 1.125 7.81753 1.125 7.59375C1.125 7.36997 1.21389 7.15536 1.37213 6.99713C1.53036 6.83889 1.74497 6.75 1.96875 6.75H4.78125C5.00503 6.75 5.21964 6.83889 5.37787 6.99713C5.53611 7.15536 5.625 7.36997 5.625 7.59375ZM4.78125 9.5625H1.96875C1.74497 9.5625 1.53036 9.6514 1.37213 9.80963C1.21389 9.96786 1.125 10.1825 1.125 10.4062C1.125 10.63 1.21389 10.8446 1.37213 11.0029C1.53036 11.1611 1.74497 11.25 1.96875 11.25H4.78125C5.00503 11.25 5.21964 11.1611 5.37787 11.0029C5.53611 10.8446 5.625 10.63 5.625 10.4062C5.625 10.1825 5.53611 9.96786 5.37787 9.80963C5.21964 9.6514 5.00503 9.5625 4.78125 9.5625ZM4.78125 12.375H1.96875C1.74497 12.375 1.53036 12.4639 1.37213 12.6221C1.21389 12.7804 1.125 12.995 1.125 13.2188C1.125 13.4425 1.21389 13.6571 1.37213 13.8154C1.53036 13.9736 1.74497 14.0625 1.96875 14.0625H4.78125C5.00503 14.0625 5.21964 13.9736 5.37787 13.8154C5.53611 13.6571 5.625 13.4425 5.625 13.2188C5.625 12.995 5.53611 12.7804 5.37787 12.6221C5.21964 12.4639 5.00503 12.375 4.78125 12.375ZM10.4062 9.5625H7.59375C7.36997 9.5625 7.15536 9.6514 6.99713 9.80963C6.83889 9.96786 6.75 10.1825 6.75 10.4062C6.75 10.63 6.83889 10.8446 6.99713 11.0029C7.15536 11.1611 7.36997 11.25 7.59375 11.25H10.4062C10.63 11.25 10.8446 11.1611 11.0029 11.0029C11.1611 10.8446 11.25 10.63 11.25 10.4062C11.25 10.1825 11.1611 9.96786 11.0029 9.80963C10.8446 9.6514 10.63 9.5625 10.4062 9.5625ZM10.4062 12.375H7.59375C7.36997 12.375 7.15536 12.4639 6.99713 12.6221C6.83889 12.7804 6.75 12.995 6.75 13.2188C6.75 13.4425 6.83889 13.6571 6.99713 13.8154C7.15536 13.9736 7.36997 14.0625 7.59375 14.0625H10.4062C10.63 14.0625 10.8446 13.9736 11.0029 13.8154C11.1611 13.6571 11.25 13.4425 11.25 13.2188C11.25 12.995 11.1611 12.7804 11.0029 12.6221C10.8446 12.4639 10.63 12.375 10.4062 12.375ZM13.2188 5.625H16.0312C16.255 5.625 16.4696 5.53611 16.6279 5.37787C16.7861 5.21964 16.875 5.00503 16.875 4.78125C16.875 4.55747 16.7861 4.34286 16.6279 4.18463C16.4696 4.02639 16.255 3.9375 16.0312 3.9375H13.2188C12.995 3.9375 12.7804 4.02639 12.6221 4.18463C12.4639 4.34286 12.375 4.55747 12.375 4.78125C12.375 5.00503 12.4639 5.21964 12.6221 5.37787C12.7804 5.53611 12.995 5.625 13.2188 5.625ZM16.0312 6.75H13.2188C12.995 6.75 12.7804 6.83889 12.6221 6.99713C12.4639 7.15536 12.375 7.36997 12.375 7.59375C12.375 7.81753 12.4639 8.03214 12.6221 8.19037C12.7804 8.34861 12.995 8.4375 13.2188 8.4375H16.0312C16.255 8.4375 16.4696 8.34861 16.6279 8.19037C16.7861 8.03214 16.875 7.81753 16.875 7.59375C16.875 7.36997 16.7861 7.15536 16.6279 6.99713C16.4696 6.83889 16.255 6.75 16.0312 6.75ZM16.0312 9.5625H13.2188C12.995 9.5625 12.7804 9.6514 12.6221 9.80963C12.4639 9.96786 12.375 10.1825 12.375 10.4062C12.375 10.63 12.4639 10.8446 12.6221 11.0029C12.7804 11.1611 12.995 11.25 13.2188 11.25H16.0312C16.255 11.25 16.4696 11.1611 16.6279 11.0029C16.7861 10.8446 16.875 10.63 16.875 10.4062C16.875 10.1825 16.7861 9.96786 16.6279 9.80963C16.4696 9.6514 16.255 9.5625 16.0312 9.5625ZM16.0312 12.375H13.2188C12.995 12.375 12.7804 12.4639 12.6221 12.6221C12.4639 12.7804 12.375 12.995 12.375 13.2188C12.375 13.4425 12.4639 13.6571 12.6221 13.8154C12.7804 13.9736 12.995 14.0625 13.2188 14.0625H16.0312C16.255 14.0625 16.4696 13.9736 16.6279 13.8154C16.7861 13.6571 16.875 13.4425 16.875 13.2188C16.875 12.995 16.7861 12.7804 16.6279 12.6221C16.4696 12.4639 16.255 12.375 16.0312 12.375Z" fill="#DDDBD0"/>
</svg>
