<svg width="18" height="18" viewBox="0 0 18 18" fill="none" xmlns="http://www.w3.org/2000/svg">
<path d="M15.75 10.125V14.625C15.75 14.7741 15.6907 14.9172 15.5852 15.0227C15.4798 15.1282 15.3367 15.1875 15.1875 15.1875H2.8125C2.66332 15.1875 2.52024 15.1282 2.41475 15.0227C2.30926 14.9172 2.25 14.7741 2.25 14.625V10.125C2.25 9.97577 2.30926 9.8327 2.41475 9.72721C2.52024 9.62172 2.66332 9.56245 2.8125 9.56245C2.96168 9.56245 3.10476 9.62172 3.21025 9.72721C3.31574 9.8327 3.375 9.97577 3.375 10.125V14.0625H14.625V10.125C14.625 9.97577 14.6843 9.8327 14.7898 9.72721C14.8952 9.62172 15.0383 9.56245 15.1875 9.56245C15.3367 9.56245 15.4798 9.62172 15.5852 9.72721C15.6907 9.8327 15.75 9.97577 15.75 10.125ZM6.58547 5.46042L8.4375 3.60769V10.125C8.4375 10.2741 8.49676 10.4172 8.60225 10.5227C8.70774 10.6282 8.85082 10.6875 9 10.6875C9.14918 10.6875 9.29226 10.6282 9.39775 10.5227C9.50324 10.4172 9.5625 10.2741 9.5625 10.125V3.60769L11.4145 5.46042C11.5201 5.56597 11.6632 5.62527 11.8125 5.62527C11.9618 5.62527 12.1049 5.56597 12.2105 5.46042C12.316 5.35488 12.3753 5.21172 12.3753 5.06245C12.3753 4.91319 12.316 4.77003 12.2105 4.66449L9.39797 1.85199C9.34573 1.79969 9.28369 1.7582 9.2154 1.72989C9.14712 1.70158 9.07392 1.68701 9 1.68701C8.92608 1.68701 8.85288 1.70158 8.7846 1.72989C8.71631 1.7582 8.65427 1.79969 8.60203 1.85199L5.78953 4.66449C5.68398 4.77003 5.62469 4.91319 5.62469 5.06245C5.62469 5.21172 5.68398 5.35488 5.78953 5.46042C5.89508 5.56597 6.03823 5.62527 6.1875 5.62527C6.33677 5.62527 6.47992 5.56597 6.58547 5.46042Z" fill="#DDDBD0"/>
</svg>
